<?xml version="1.0" encoding="UTF-8" standalone="no"?>
<svg
   id="svg"
   version="1.1"
   style="display: block;"
   viewBox="0 0 982 982"
   sodipodi:docname="export-2023-02-15 164906.svg"
   inkscape:version="1.1.2 (0a00cf5339, 2022-02-04)"
   xmlns:inkscape="http://www.inkscape.org/namespaces/inkscape"
   xmlns:sodipodi="http://sodipodi.sourceforge.net/DTD/sodipodi-0.dtd"
   xmlns="http://www.w3.org/2000/svg"
   xmlns:svg="http://www.w3.org/2000/svg">
  <defs
     id="defs1144" />
  <sodipodi:namedview
     id="namedview1142"
     pagecolor="#ffffff"
     bordercolor="#666666"
     borderopacity="1.0"
     inkscape:pageshadow="2"
     inkscape:pageopacity="0.0"
     inkscape:pagecheckerboard="0"
     showgrid="false"
     inkscape:zoom="0.88900204"
     inkscape:cx="491"
     inkscape:cy="491"
     inkscape:window-width="2486"
     inkscape:window-height="1369"
     inkscape:window-x="74"
     inkscape:window-y="34"
     inkscape:window-maximized="1"
     inkscape:current-layer="svg" />
  <path
     d="M0 0 C3.15707331 1.39802273 5.80531518 3.26563277 8.56591797 5.32519531 C31.52527136 22.41152429 59.59338052 32.0062146 88.27734375 32.23828125 C89.26927231 32.24789383 90.26120087 32.25750641 91.28318787 32.26741028 C94.50132693 32.29214844 97.7192768 32.30468371 100.9375 32.3125 C102.5796347 32.31742462 102.5796347 32.31742462 104.25494385 32.32244873 C124.71422269 32.34229139 144.33475698 30.74183912 164.45703125 26.9921875 C171.04444719 25.77145098 177.67391505 24.8921143 184.3125 24 C186.76697417 23.66701357 189.2214014 23.33368096 191.67578125 23 C192.88806396 22.8354834 194.10034668 22.6709668 195.34936523 22.50146484 C198.96130623 22.00531512 202.57074913 21.49407064 206.1796875 20.9765625 C207.33154541 20.81188477 208.48340332 20.64720703 209.67016602 20.47753906 C211.78169424 20.17472 213.89290237 19.86965353 216.00366211 19.56152344 C229.41188209 17.64557815 242.65692963 16.70331282 256.1875 16.6875 C257.20815048 16.6823941 257.20815048 16.6823941 258.24942017 16.67718506 C268.02198102 16.64909746 277.35546217 17.49097171 287 19 C287.88985596 19.12995361 288.77971191 19.25990723 289.6965332 19.39379883 C313.20184283 22.96548232 333.86705689 33.22113151 353 47 C353.72163771 47.41616514 354.44327541 47.83233028 355.18678093 48.26110649 C357 50 357 50 357.23327827 52.67860603 C357.1098197 53.73278158 356.98636112 54.78695713 356.85916138 55.87307739 C356.73088078 57.03950901 356.60260017 58.20594063 356.47043228 59.40771866 C356.2375683 61.18589792 356.2375683 61.18589792 356 63 C355.87083065 64.05401882 355.7416613 65.10803764 355.60857773 66.19399643 C355.18710561 69.47779296 354.72530255 72.75384129 354.25341797 76.03076172 C353.99208824 77.88083328 353.99208824 77.88083328 353.72547913 79.76828003 C353.25084202 83.12224504 352.77255189 86.47564814 352.29247427 89.82883596 C351.78176196 93.4018563 351.27560518 96.9755224 350.76882935 100.54910278 C349.91247648 106.58310195 349.05300172 112.61664964 348.19140625 118.64990234 C347.32188938 124.7387198 346.45484396 130.82788103 345.59082031 136.91748047 C345.43310154 138.02907488 345.43310154 138.02907488 345.27219653 139.16312575 C345.16726925 139.90265054 345.06234197 140.64217533 344.95423508 141.40410995 C340.81519267 170.57493751 336.65587835 199.74200867 332.24996948 228.87399292 C332.1207844 229.73086008 331.99159931 230.58772724 331.85849953 231.47056007 C331.60823518 233.13041829 331.35700514 234.79013125 331.10471153 236.44968224 C330.42020881 241.00214303 329.79240577 245.55773454 329.21380615 250.12493896 C329.08299589 251.14200865 328.95218563 252.15907833 328.81741142 253.20696831 C328.56561344 255.18253279 328.32153566 257.15910011 328.08604622 259.13667488 C327.97304617 260.0196871 327.86004612 260.90269932 327.74362183 261.81246948 C327.64795362 262.59808699 327.55228542 263.38370449 327.45371819 264.19312859 C327.30399118 264.78939615 327.15426418 265.38566372 327 266 C326.01 266.495 326.01 266.495 325 267 C323.87464844 266.12988281 323.87464844 266.12988281 322.7265625 265.2421875 C307.92459984 253.94497167 292.04369988 244.93097854 274 240 C273.22027832 239.77006348 272.44055664 239.54012695 271.63720703 239.30322266 C234.94706404 228.88381462 193.08902683 234.05012282 156.13537598 240.62322998 C151.81721897 241.38513426 147.48928519 242.0892345 143.16308594 242.80371094 C141.25567398 243.12314573 139.34976439 243.45183327 137.44628906 243.79394531 C130.98809727 244.94133979 124.54149018 245.54039239 118 246 C118.0182634 246.59113083 118.03652679 247.18226166 118.05534363 247.79130554 C118.16954662 254.43560417 117.47852048 260.71800263 116.42578125 267.26953125 C116.26170273 268.33187485 116.09762421 269.39421844 115.92857361 270.48875427 C115.57771114 272.75710966 115.22363049 275.02496925 114.86657715 277.2923584 C113.92784446 283.25627879 113.01311889 289.22387675 112.09765625 295.19140625 C111.82391678 296.97114334 111.82391678 296.97114334 111.54464722 298.78683472 C109.78519133 310.28327832 108.20790674 321.80028607 106.72387695 333.33520508 C105.66479342 341.49466016 104.43365726 349.61355534 103.109375 357.734375 C100.8231435 371.78948142 98.90330653 385.88876645 97 400 C94.99283291 414.88126227 92.92415426 429.73710381 90.5 444.55664062 C88.4279145 457.33719923 86.73054852 470.16960513 85 483 C82.99283291 497.88126227 80.92415426 512.73710381 78.5 527.55664062 C76.4279145 540.33719923 74.73054852 553.16960513 73 566 C71.13362869 579.83739357 69.2629388 593.66508955 67.0078125 607.4453125 C64.69935695 621.55241528 62.7887207 635.70983888 60.875 649.875 C60.3534479 653.73119258 59.83096164 657.58724645 59.30545044 661.44290161 C58.98253226 663.81227365 58.66179099 666.1819439 58.34371948 668.55197144 C57.53091281 674.5176174 56.58765138 680.43327538 55.48019409 686.3510437 C54.68612866 690.73144875 54.05433125 695.13401547 53.4140625 699.5390625 C53.12011731 701.52218371 52.8258357 703.50525508 52.53125 705.48828125 C52.07833965 708.54786634 51.62751523 711.60769596 51.18261719 714.66845703 C47.07723579 742.84630205 40.19083781 769.37181552 28.23779297 795.31005859 C27.07817347 797.83011532 25.94481577 800.36038686 24.81640625 802.89453125 C14.50680348 825.71261323 1.03806125 847.15539262 -15.4296875 866.02734375 C-17.80582341 868.77542798 -20.06277998 871.58591762 -22.3125 874.4375 C-29.68311506 883.4916908 -38.18591353 891.84892384 -47.10546875 899.37890625 C-48.48987327 900.56349981 -49.84273354 901.78524005 -51.17578125 903.02734375 C-58.3258004 909.68587222 -66.0180438 915.39376932 -74 921 C-74.61004883 921.42958008 -75.22009766 921.85916016 -75.84863281 922.30175781 C-85.8303094 929.27658185 -96.24868674 935.29522154 -107 941 C-107.6501709 941.34772461 -108.3003418 941.69544922 -108.97021484 942.05371094 C-121.25721437 948.57749986 -134.0823314 953.86454923 -147 959 C-148.15435547 959.46067871 -148.15435547 959.46067871 -149.33203125 959.93066406 C-162.18651299 964.98063903 -175.53609747 968.03341694 -189 971 C-189.74072754 971.16628906 -190.48145508 971.33257813 -191.24462891 971.50390625 C-195.80459742 972.51143351 -200.38237666 973.31415582 -205 974 C-206.34529785 974.20302734 -206.34529785 974.20302734 -207.71777344 974.41015625 C-260.77729335 982.09642928 -312.99487652 974.37932046 -363 956 C-363.96099609 955.64824707 -364.92199219 955.29649414 -365.91210938 954.93408203 C-379.73069728 949.76916184 -392.32456635 942.48188506 -405 935 C-405.8245166 934.52127441 -406.6490332 934.04254883 -407.49853516 933.54931641 C-423.72955523 924.12171792 -438.25575274 912.84521912 -452.33178711 900.46362305 C-453.51782506 899.42304094 -454.70933742 898.38868408 -455.90454102 897.35864258 C-467.63748739 887.21365663 -478.35776253 876.27655619 -487.61962891 863.82910156 C-489.08400491 861.8886868 -490.58954776 859.98631432 -492.10546875 858.0859375 C-511.48365337 833.63140328 -525.72102809 805.997805 -537 777 C-537.30131836 776.22994629 -537.60263672 775.45989258 -537.91308594 774.66650391 C-542.64689398 762.40822712 -545.93201996 749.76395469 -549 737 C-549.24943359 735.96842773 -549.24943359 735.96842773 -549.50390625 734.91601562 C-550.51319939 730.63788568 -551.29563354 726.336509 -552 722 C-552.13535156 721.22317871 -552.27070312 720.44635742 -552.41015625 719.64599609 C-557.52701089 689.29636391 -556.92668563 656.32627157 -552 626 C-551.83371094 624.94329102 -551.66742187 623.88658203 -551.49609375 622.79785156 C-539.93756011 551.37039459 -500.91325354 480.5421053 -443 436 C-442.1028125 435.27425781 -441.205625 434.54851562 -440.28125 433.80078125 C-411.12686248 410.59235435 -377.02701255 391.12355141 -341 381 C-340.02981934 380.72704102 -339.05963867 380.45408203 -338.06005859 380.17285156 C-324.59427301 376.43711771 -311.21507837 373.10995299 -297.34765625 371.32373047 C-294.91839047 370.98874644 -292.50965629 370.58029332 -290.09375 370.16015625 C-277.47998517 368.08806298 -265.00285391 367.70497508 -252.25 367.6875 C-251.43736694 367.68400543 -250.62473389 367.68051086 -249.78747559 367.6769104 C-210.93300117 367.58420354 -168.56201543 374.32492252 -133.375 391.390625 C-130.9075604 392.56722814 -128.45340174 393.67319857 -125.9375 394.734375 C-112.87516449 400.27376203 -99.36441406 406.59061499 -88.05859375 415.25390625 C-83.65022688 417.77056013 -79.30455039 418.12825312 -74.3125 418.6875 C-72.43332671 418.91840996 -70.55440655 419.15139201 -68.67578125 419.38671875 C-67.84989502 419.48170654 -67.02400879 419.57669434 -66.1730957 419.67456055 C-64 420 -64 420 -61 421 C-59.03954179 407.345682 -57.11183817 393.68713254 -55.21232796 380.02420807 C-54.46136934 374.62531052 -53.70801591 369.22674683 -52.95507812 363.828125 C-52.00815317 357.03795011 -51.06191398 350.24768217 -50.1184082 343.45703125 C-49.34556925 337.89518457 -48.57019132 332.33369664 -47.7932415 326.77242279 C-47.50257925 324.68873219 -47.21278046 322.60492091 -46.92396736 320.52097321 C-45.23080014 308.30756041 -43.40206603 296.12558487 -41.42890358 283.95419693 C-40.10755265 275.76944697 -38.91281643 267.57474965 -37.81681633 259.35705566 C-37.51209672 257.07322569 -37.20317618 254.7899918 -36.89344788 252.50683594 C-36.12749007 246.85517061 -35.36764751 241.20268801 -34.60845947 235.55010986 C-33.95901117 230.71588961 -33.30670927 225.88207072 -32.65069771 221.04873657 C-32.35171401 218.83777949 -32.05671637 216.62631718 -31.76194763 214.41479492 C-30.69961878 206.53474533 -29.45717587 198.70898372 -28.0440979 190.88410091 C-27.11573088 185.72833254 -26.32318925 180.5774623 -25.68359375 175.37890625 C-25.5306057 174.18538795 -25.5306057 174.18538795 -25.37452698 172.96775818 C-25.05836714 170.49980534 -24.74728513 168.03126045 -24.4375 165.5625 C-22.12908125 147.20422321 -22.12908125 147.20422321 -20.50708008 139.66430664 C-19.09131798 132.22559131 -18.30028884 124.6526624 -17.328125 117.14477539 C-16.08840441 107.60932585 -14.7160957 98.11035653 -13.16015625 88.62109375 C-11.43784908 78.07208512 -9.91533215 67.50206208 -8.45703125 56.9140625 C-8.29491528 55.73780021 -8.29491528 55.73780021 -8.12952423 54.53777504 C-7.2387844 48.06756092 -6.35484199 41.59642116 -5.47113037 35.12524414 C-4.80365682 30.23922843 -4.13387808 25.35353979 -3.46094322 20.46827316 C-3.15009121 18.20455185 -2.84265111 15.94038426 -2.53535461 13.67617798 C-2.34641308 12.30183604 -2.15730988 10.92751632 -1.96801758 9.55322266 C-1.80465408 8.35621735 -1.64129059 7.15921204 -1.47297668 5.92593384 C-1 3 -1 3 0 0 Z "
     style="fill: #487856;"
     id="path1065"
     transform="translate(590,3)" />
  <path
     d="M0 0 C3.88019011 3.55684093 6.73301517 7.66061934 9.75 11.9375 C14.73658023 18.92631666 19.84358615 25.80798864 25.0625 32.625 C26.08174561 33.95688354 26.08174561 33.95688354 27.12158203 35.31567383 C28.45836806 37.06210973 29.79527882 38.80845016 31.13232422 40.5546875 C38.10870155 49.68872611 44.94905754 58.9224755 51.75 68.1875 C57.42345665 75.91543804 63.21138673 83.55002337 69.03808594 91.1628418 C74.00622353 97.66539815 78.87562263 104.23429756 83.7109375 110.8359375 C88.72598007 117.6663801 93.86161215 124.40075688 99.01269531 131.12890625 C104.25149001 137.98454982 109.39324617 144.90714425 114.484375 151.87304688 C115.020625 152.60587891 115.556875 153.33871094 116.109375 154.09375 C116.60630859 154.77824219 117.10324219 155.46273437 117.61523438 156.16796875 C119.10309613 158.19064601 119.10309613 158.19064601 121.390625 160.65625 C123.57848734 163.84245729 123.60276097 165.16465425 123 169 C121.72847347 172.65938421 120.1649376 176.16248747 118.5625 179.6875 C118.10657471 180.7077124 117.65064941 181.7279248 117.1809082 182.77905273 C116.24334223 184.86739353 115.29990331 186.95310766 114.35058594 189.03613281 C113.14954413 191.67182471 111.96751422 194.31510237 110.7890625 196.9609375 C100.47977295 219.7530465 87.02241288 241.17332556 70.5703125 260.02734375 C68.19417659 262.77542798 65.93722002 265.58591762 63.6875 268.4375 C56.31688494 277.4916908 47.81408647 285.84892384 38.89453125 293.37890625 C37.51012673 294.56349981 36.15726646 295.78524005 34.82421875 297.02734375 C27.6741996 303.68587222 19.9819562 309.39376932 12 315 C11.38995117 315.42958008 10.77990234 315.85916016 10.15136719 316.30175781 C0.1696906 323.27658185 -10.24868674 329.29522154 -21 335 C-21.6501709 335.34772461 -22.3003418 335.69544922 -22.97021484 336.05371094 C-35.25721437 342.57749986 -48.0823314 347.86454923 -61 353 C-61.76957031 353.30711914 -62.53914062 353.61423828 -63.33203125 353.93066406 C-81.11330943 360.9161662 -100.18009004 364.93770862 -119 368 C-120.258125 368.20496094 -121.51625 368.40992188 -122.8125 368.62109375 C-125.31946419 368.99354232 -127.83477061 369.31417755 -130.35546875 369.578125 C-134.00106608 369.9225799 -134.00106608 369.9225799 -137.48828125 370.859375 C-141.7418047 371.57230985 -143.94489095 371.56744714 -148 370 C-153.67119668 364.84929283 -157.80927943 358.21717598 -162.04492188 351.890625 C-164.9778082 347.55428958 -168.11739198 343.38040882 -171.25 339.1875 C-172.4024461 337.61952086 -173.55351085 336.05052541 -174.703125 334.48046875 C-177.77349385 330.29856906 -180.87984875 326.14483316 -184 322 C-188.30721133 316.27638568 -192.57070158 310.52224685 -196.8125 304.75 C-202.29429361 297.29136489 -207.83197401 289.8766892 -213.39599609 282.47924805 C-217.61295499 276.86662726 -221.78594034 271.22361042 -225.9375 265.5625 C-230.99238566 258.67484878 -236.12772393 251.85288024 -241.3125 245.0625 C-241.98659912 244.17916992 -242.66069824 243.29583984 -243.35522461 242.38574219 C-245.76033258 239.23596265 -248.16562764 236.08636056 -250.57958984 232.94335938 C-251.89042347 231.23610249 -253.19590857 229.52490807 -254.5 227.8125 C-255.1909375 226.91144531 -255.881875 226.01039063 -256.59375 225.08203125 C-258 223 -258 223 -258 221 C-258.66 221 -259.32 221 -260 221 C-260.93964849 219.66230598 -261.8668723 218.31472966 -262.7421875 216.93408203 C-265.31503552 212.97792869 -268.19528518 209.23090613 -271 205.4375 C-271.92425781 204.18163086 -271.92425781 204.18163086 -272.8671875 202.90039062 C-275.33478141 199.5564302 -277.79764338 196.24613569 -280.4375 193.03515625 C-282 191 -282 191 -282 189 C-282.66 189 -283.32 189 -284 189 C-284.99 186.525 -284.99 186.525 -286 184 C-279.7606383 189.28989362 -279.7606383 189.28989362 -276.765625 192.0859375 C-265.69082741 202.40069997 -253.25569898 209.8800353 -240 217 C-238.98164063 217.556875 -237.96328125 218.11375 -236.9140625 218.6875 C-223.48090798 225.75370731 -208.87360972 230.16558922 -194 233 C-193.09427246 233.17805176 -192.18854492 233.35610352 -191.25537109 233.53955078 C-181.54653063 235.25558182 -171.95314512 235.40049056 -162.125 235.375 C-160.83225662 235.37318726 -160.83225662 235.37318726 -159.51339722 235.37133789 C-130.71847304 235.26194153 -104.35844825 228.89024323 -79 215 C-78.03449219 214.51015625 -77.06898438 214.0203125 -76.07421875 213.515625 C-62.77105787 206.66189812 -51.66891526 197.36013428 -41 187 C-40.09507812 186.13503906 -39.19015625 185.27007813 -38.2578125 184.37890625 C-33.3896753 179.73187965 -33.3896753 179.73187965 -30 174 C-29.34 174 -28.68 174 -28 174 C-27.76796875 173.45472656 -27.5359375 172.90945313 -27.296875 172.34765625 C-25.63701335 169.34290669 -23.51566946 167.01555722 -21.25 164.4375 C-17.29398855 159.83491464 -14.20608394 155.25671878 -11.546875 149.765625 C-10.20863291 147.37301035 -8.81955093 145.4398227 -7.1328125 143.296875 C-3.72180601 138.84198291 -1.42638655 134.09592736 0.875 129 C1.2771875 128.12988281 1.679375 127.25976562 2.09375 126.36328125 C3.07099871 124.24590905 4.03950961 122.12501282 5 120 C4.34 120 3.68 120 3 120 C3.25 117.1875 3.25 117.1875 4 114 C4.6403418 113.54004639 5.28068359 113.08009277 5.94042969 112.60620117 C8.50766896 110.60408321 8.87262455 109.22765793 9.703125 106.11328125 C9.9609375 105.17548828 10.21875 104.23769531 10.484375 103.27148438 C10.73703125 102.29501953 10.9896875 101.31855469 11.25 100.3125 C11.518125 99.32443359 11.78625 98.33636719 12.0625 97.31835938 C12.72157775 94.88212554 13.36679006 92.44306099 14 90 C12.68 89.67 11.36 89.34 10 89 C10.33 87.02 10.66 85.04 11 83 C12.65 83 14.3 83 16 83 C16.31331041 79.41905415 16.56818594 75.83626145 16.8125 72.25 C16.90208984 71.23421875 16.99167969 70.2184375 17.08398438 69.171875 C17.25926201 66.36743282 17.37053153 63.78658051 17 61 C14.68932066 58.54190193 14.68932066 58.54190193 12 57 C11.29296875 54.640625 11.29296875 54.640625 11.1875 52.25 C11.13980469 51.45078125 11.09210938 50.6515625 11.04296875 49.828125 C11.02878906 49.22484375 11.01460937 48.6215625 11 48 C13 49 15 50 17 51 C16.88519969 48.14509764 16.75847036 45.2915412 16.625 42.4375 C16.57859375 41.23770508 16.57859375 41.23770508 16.53125 40.01367188 C16.17011585 32.64051625 14.79489754 26.69422308 10.6875 20.4375 C10.06875 19.49003906 9.45 18.54257812 8.8125 17.56640625 C7.35909658 15.50846218 5.90199144 13.70685246 4.1875 11.875 C1.33246625 8.12266993 0.68424202 4.59565538 0 0 Z "
     transform="translate(504,609)"
     style="fill: #40694C;"
     id="path1067" />
  <path
     d="M0 0 C8.59095795 0.60236038 16.947219 2.24607994 25.375 3.9375 C33.77480879 5.60996555 42.16728512 7.25149949 50.63134766 8.57250977 C53 9 53 9 56 10 C55.44271625 17.8799922 53.99186233 25.42805742 52.25 33.125 C51.85337158 34.89774292 51.85337158 34.89774292 51.44873047 36.70629883 C49.40841732 45.63617929 46.99599473 54.34343117 44 63 C25.87220054 61.95485848 7.78258414 59.65235994 -10 56 C-5.06341425 26.73396942 -5.06341425 26.73396942 -2.25683594 13.25683594 C-1.34263633 8.84887989 -0.58888386 4.46373966 0 0 Z "
     transform="translate(350,668)"
     style="fill: #92AD5F;"
     id="path1069" />
  <path
     d="M0 0 C9.84417515 0.33483589 19.50468567 1.53726702 29.25 2.9375 C30.43303711 3.10733398 31.61607422 3.27716797 32.83496094 3.45214844 C39.9188209 4.49185391 46.96584384 5.66479641 54 7 C49.06341425 36.26603058 49.06341425 36.26603058 46.25683594 49.74316406 C45.34263633 54.15112011 44.58888386 58.53626034 44 63 C37.49076203 62.45877097 31.19692713 61.55224633 24.8125 60.1875 C16.04769006 58.3680702 7.25498771 56.78860754 -1.57299805 55.30737305 C-2.49894775 55.15051025 -3.42489746 54.99364746 -4.37890625 54.83203125 C-5.1994751 54.69514893 -6.02004395 54.5582666 -6.86547852 54.41723633 C-9 54 -9 54 -12 53 C-11.44271625 45.1200078 -9.99186233 37.57194258 -8.25 29.875 C-7.98558105 28.69317139 -7.72116211 27.51134277 -7.44873047 26.29370117 C-5.40841732 17.36382071 -2.99599473 8.65656883 0 0 Z "
     transform="translate(302,597)"
     style="fill: #92AD5F;"
     id="path1071" />
  <path
     d="M0 0 C18.69775703 3.17794428 37.36067437 6.49399403 56 10 C55.45877097 16.50923797 54.55224633 22.80307287 53.1875 29.1875 C51.3680702 37.95230994 49.78860754 46.74501229 48.30737305 55.57299805 C48.15051025 56.49894775 47.99364746 57.42489746 47.83203125 58.37890625 C47.69514893 59.1994751 47.5582666 60.02004395 47.41723633 60.86547852 C47 63 47 63 46 66 C38.1200078 65.44271625 30.57194258 63.99186233 22.875 62.25 C21.69317139 61.98558105 20.51134277 61.72116211 19.29370117 61.44873047 C10.36382071 59.40841732 1.65656883 56.99599473 -7 54 C-5.95594373 35.89102403 -3.73038397 17.75239465 0 0 Z "
     transform="translate(288,656)"
     style="fill: #92AD5F;"
     id="path1073" />
  <path
     d="M0 0 C7.78056237 0.53625156 15.1721816 2.00862744 22.75 3.8125 C23.89218994 4.08022217 25.03437988 4.34794434 26.21118164 4.6237793 C35.2385532 6.76331065 44.19391951 9.06463984 53 12 C51.95594373 30.10897597 49.73038397 48.24760535 46 66 C35.84104337 64.51332342 25.81404138 62.821764 15.81347656 60.49023438 C7.28392491 58.53954662 -1.34679323 57.26632294 -10 56 C-9.39335759 47.47554135 -7.79156451 39.17881624 -6.125 30.8125 C-5.86546859 29.49161829 -5.60635218 28.17065497 -5.34765625 26.84960938 C-3.59021917 17.89479279 -1.79384469 8.94758188 0 0 Z "
     transform="translate(362,606)"
     style="fill: #92AD5F;"
     id="path1075" />
  <path
     d="M0 0 C12.17230117 1.23799331 24.07240951 3.20916819 36.0625 5.625 C37.71928205 5.95372531 39.3761828 6.28185292 41.03320312 6.609375 C45.02352967 7.39940601 49.01218957 8.19736934 53 9 C46.82987974 38.04651735 46.82987974 38.04651735 41 52 C23.23769125 53.29180427 5.77774274 52.86384483 -12 52 C-11.36442738 47.90823915 -10.53716319 43.93303355 -9.51171875 39.921875 C-9.21918213 38.76848633 -8.92664551 37.61509766 -8.62524414 36.42675781 C-8.31578857 35.21342773 -8.00633301 34.00009766 -7.6875 32.75 C-4.93622363 21.86915028 -2.3586936 10.97171919 0 0 Z "
     transform="translate(413,680)"
     style="fill: #92AD5F;"
     id="path1077" />
  <path
     d="M0 0 C14.50289541 -0.53862198 31.14761651 -0.61746116 45 4 C42.8378934 16.05465019 40.62081615 28.09741346 38.3125 40.125 C38.09827393 41.24438965 37.88404785 42.3637793 37.66333008 43.51708984 C37.36011841 45.09031006 37.36011841 45.09031006 37.05078125 46.6953125 C36.87200439 47.62359863 36.69322754 48.55188477 36.5090332 49.50830078 C36.06306407 51.69130366 35.56119832 53.84416566 35 56 C27.39169577 55.59737076 19.9571587 54.74788657 12.4375 53.5625 C2.32534468 51.97004994 -7.80723802 50.92168592 -18 50 C-16.11297681 41.44450429 -13.45913478 33.36369081 -10.29370117 25.19897461 C-9.56021372 23.30660147 -8.83692131 21.41057287 -8.11523438 19.51367188 C-5.58655035 12.91966867 -2.94231022 6.42021829 0 0 Z "
     transform="translate(322,541)"
     style="fill: #92AD5F;"
     id="path1079" />
  <path
     d="M0 0 C17.49 0 34.98 0 53 0 C50.7574242 11.21287902 50.7574242 11.21287902 49.59765625 15.6640625 C49.34846436 16.6339209 49.09927246 17.6037793 48.8425293 18.60302734 C48.45641479 20.09890381 48.45641479 20.09890381 48.0625 21.625 C45.90301319 30.09406345 44.01438991 38.53393542 42.54296875 47.1484375 C42 50 42 50 41 52 C35.77415548 52.19003071 31.16409579 51.50673765 26.125 50.25 C17.23139051 48.14028215 8.27427576 46.6806429 -0.75927734 45.30761719 C-1.78617676 45.15067383 -2.81307617 44.99373047 -3.87109375 44.83203125 C-4.78818115 44.69514893 -5.70526855 44.5582666 -6.65014648 44.41723633 C-9 44 -9 44 -12 43 C-10.40013061 35.02666717 -8.59179447 27.12397534 -6.5625 19.25 C-6.36954346 18.48324951 -6.17658691 17.71649902 -5.9777832 16.92651367 C-4.41671103 10.96796548 -2.3321314 5.8303285 0 0 Z "
     transform="translate(242,596)"
     style="fill: #92AD5F;"
     id="path1081" />
  <path
     d="M0 0 C17.49084688 2.76124537 34.78664579 5.79507459 52 10 C51.37362997 18.91650102 50.27608897 27.7177239 49 36.5625 C47.7819842 45.03124031 46.6670091 53.4682076 46 62 C39.73011798 61.44571652 34.33741769 59.96460623 28.4375 57.8125 C27.56778564 57.50151367 26.69807129 57.19052734 25.80200195 56.87011719 C15.73242845 53.23801344 5.82989205 49.23594841 -4 45 C-4.19239092 35.30702962 -3.67071349 25.94622563 -2.5625 16.3125 C-2.42779297 15.06533203 -2.29308594 13.81816406 -2.15429688 12.53320312 C-1.14422053 3.43266158 -1.14422053 3.43266158 0 0 Z "
     transform="translate(229,645)"
     style="fill: #92AD5F;"
     id="path1083" />
  <path
     d="M0 0 C17.18644391 4.09743034 33.79446646 11.08512395 50 18 C50.38140027 28.2695553 49.80388699 38.23143653 48.5625 48.4375 C48.42803467 49.54536865 48.29356934 50.6532373 48.1550293 51.79467773 C47.14302238 59.71395524 47.14302238 59.71395524 46 62 C40.39686941 62.17490263 35.50707483 61.62458593 30.0625 60.25 C21.13454379 58.11520075 12.13996015 56.66611474 3.06469727 55.30761719 C2.03143311 55.15067383 0.99816895 54.99373047 -0.06640625 54.83203125 C-0.99396729 54.69514893 -1.92152832 54.5582666 -2.87719727 54.41723633 C-5 54 -5 54 -6 53 C-5.94115337 44.5702203 -4.47068169 36.20859703 -3.16381836 27.90405273 C-1.73381937 18.63930756 -0.8439983 9.33362823 0 0 Z "
     transform="translate(421,620)"
     style="fill: #92AD5F;"
     id="path1085" />
  <path
     d="M0 0 C7.42047948 0.44553604 14.71340725 1.34919393 22.0625 2.4375 C32.01721937 3.91113757 41.98509144 5.02712317 52 6 C51.37431034 11.81109269 49.87269073 17.03595616 48 22.5625 C47.69892334 23.46057373 47.39784668 24.35864746 47.08764648 25.28393555 C43.52214712 35.70664941 39.29903736 45.8622564 35 56 C24.7304447 56.38140027 14.76856347 55.80388699 4.5625 54.5625 C3.45463135 54.42803467 2.3467627 54.29356934 1.20532227 54.1550293 C-6.71395524 53.14302238 -6.71395524 53.14302238 -9 52 C-9.17633564 46.36355713 -8.61823768 41.41863623 -7.25 35.9375 C-5.25518558 27.52105977 -3.72746827 19.0598311 -2.30761719 10.52905273 C-2.15067383 9.59262939 -1.99373047 8.65620605 -1.83203125 7.69140625 C-1.69514893 6.85810791 -1.5582666 6.02480957 -1.41723633 5.16625977 C-1 3 -1 3 0 0 Z "
     transform="translate(339,731)"
     style="fill: #92AD5F;"
     id="path1087" />
  <path
     d="M0 0 C9.61697417 1.70652407 18.89691016 4.34513429 28.25 7.125 C29.46469971 7.4859375 30.67939941 7.846875 31.9309082 8.21875 C40.71194944 10.85597472 40.71194944 10.85597472 43 12 C43 29.49 43 46.98 43 65 C38.85505687 64.30917614 34.97006655 63.5466306 30.921875 62.51171875 C29.76848633 62.21918213 28.61509766 61.92664551 27.42675781 61.62524414 C25.6067627 61.16106079 25.6067627 61.16106079 23.75 60.6875 C12.87022598 57.93649563 1.97578049 55.33743473 -9 53 C-9.19174056 47.74083041 -8.51111878 43.11353778 -7.25 38 C-4.868323 27.87168449 -3.12411329 17.65366042 -1.41723633 7.39331055 C-0.98598506 4.91960888 -0.50221856 2.46018672 0 0 Z "
     transform="translate(373,546)"
     style="fill: #92AD5F;"
     id="path1089" />
  <path
     d="M0 0 C11.21287902 2.2425758 11.21287902 2.2425758 15.6640625 3.40234375 C16.6339209 3.65153564 17.6037793 3.90072754 18.60302734 4.1574707 C19.60027832 4.41488037 20.5975293 4.67229004 21.625 4.9375 C30.09406345 7.09698681 38.53393542 8.98561009 47.1484375 10.45703125 C50 11 50 11 52 12 C50.84916427 23.69006822 48.90739468 35.05986238 46.50244141 46.55322266 C45.70364084 50.44320286 44.97384339 54.3454854 44.25 58.25 C44.12246338 58.93586182 43.99492676 59.62172363 43.86352539 60.32836914 C43.57458985 61.88537686 43.28710842 63.44265433 43 65 C34.79984008 63.51236037 26.72492229 61.76866785 18.6875 59.5625 C17.61459717 59.27306519 17.61459717 59.27306519 16.52001953 58.9777832 C10.76261871 57.36152042 5.63786935 55.25514774 0 53 C0 35.51 0 18.02 0 0 Z "
     transform="translate(280,717)"
     style="fill: #92AD5F;"
     id="path1091" />
  <path
     d="M0 0 C7.9244301 2.94062439 15.64418168 6.05765351 23.1875 9.875 C24.0431958 10.30482178 24.8988916 10.73464355 25.78051758 11.17749023 C32.15771328 14.43867356 38.88165297 17.88165297 44 23 C44.28437845 24.36512821 44.51412523 25.7417552 44.71875 27.12109375 C44.84636719 27.97509766 44.97398437 28.82910156 45.10546875 29.70898438 C45.30076172 31.05959961 45.30076172 31.05959961 45.5 32.4375 C45.63019531 33.30310547 45.76039063 34.16871094 45.89453125 35.06054688 C47.22722216 44.0999605 48.16787615 52.98159254 48.0625 62.125 C48.05798828 62.89070312 48.05347656 63.65640625 48.04882812 64.4453125 C48.03725564 66.29691037 48.01933155 68.14846688 48 70 C41.60024818 67.93621753 35.3280208 65.62533786 29.0625 63.1875 C21.24995391 60.17143204 13.3959013 57.37499123 5.42211914 54.81518555 C0.09494626 53.09494626 0.09494626 53.09494626 -1 52 C-1.06395625 50.37225224 -1.057048 48.7416579 -1.02172852 47.11303711 C-0.99158409 45.55153175 -0.99158409 45.55153175 -0.96083069 43.95848083 C-0.93379562 42.8262056 -0.90676056 41.69393036 -0.87890625 40.52734375 C-0.85529526 39.37456436 -0.83168427 38.22178497 -0.80735779 37.03407288 C-0.73049697 33.33509686 -0.6465695 29.63631854 -0.5625 25.9375 C-0.50930175 23.43685878 -0.45656123 20.93620778 -0.40429688 18.43554688 C-0.27485165 12.29024102 -0.13959707 6.14508317 0 0 Z "
     transform="translate(423,561)"
     style="fill: #92AD5F;"
     id="path1093" />
  <path
     d="M0 0 C0.9215538 0.0199855 1.8431076 0.03997101 2.79258728 0.06056213 C3.83359085 0.08065842 4.87459442 0.1007547 5.94714355 0.12145996 C7.64555641 0.16201256 7.64555641 0.16201256 9.37828064 0.2033844 C10.53106003 0.22699539 11.68383942 0.25060638 12.87155151 0.27493286 C16.57052753 0.35179368 20.26930585 0.43572115 23.96812439 0.51979065 C26.46876561 0.5729889 28.96941661 0.62572942 31.47007751 0.67799377 C37.61538337 0.80743899 43.76054122 0.94269358 49.90562439 1.08229065 C47.89185938 7.43177316 45.09419865 13.27354727 42.21812439 19.26979065 C41.71345642 20.34293518 41.20878845 21.41607971 40.68882751 22.52174377 C30.94167181 42.89095791 30.94167181 42.89095791 24.65562439 45.1643219 C23.08385089 45.52501865 21.49824803 45.82906349 19.90562439 46.08229065 C19.04839783 46.2426178 18.19117126 46.40294495 17.30796814 46.56813049 C14.5125519 47.04526179 11.72001963 47.42253692 8.90562439 47.76979065 C7.90974304 47.89716614 6.91386169 48.02454163 5.88780212 48.15577698 C-2.80302759 49.19349838 -11.35652283 49.39896451 -20.09437561 49.08229065 C-18.03059314 42.68253883 -15.71971347 36.41031144 -13.28187561 30.14479065 C-10.26580765 22.33224456 -7.46936684 14.47819195 -4.90956116 6.50440979 C-2.84527142 0.11179429 -2.84527142 0.11179429 0 0 Z "
     transform="translate(401.09437561035156,737.9177093505859)"
     style="fill: #92AD5F;"
     id="path1095" />
  <path
     d="M0 0 C0.86496094 0.32871094 1.72992188 0.65742187 2.62109375 0.99609375 C12.4495354 4.71377383 22.3239704 8.29629061 32.21655273 11.83959961 C33.23821533 12.20577393 34.25987793 12.57194824 35.3125 12.94921875 C36.21613281 13.27237061 37.11976563 13.59552246 38.05078125 13.9284668 C41.71061424 15.25818592 45.35401901 16.63275713 49 18 C48.67 35.16 48.34 52.32 48 70 C40.52040251 67.50680084 34.03615097 64.76096336 27.0625 61.25 C26.04220703 60.74984375 25.02191406 60.2496875 23.97070312 59.734375 C6.33734544 50.91206968 6.33734544 50.91206968 3.4375 44.59765625 C3.293125 43.43105469 3.14875 42.26445313 3 41.0625 C2.90936279 40.41845215 2.81872559 39.7744043 2.7253418 39.11083984 C2.54039797 37.75720147 2.37477536 36.40079048 2.22802734 35.04248047 C2.00486678 33.04359264 1.70051317 31.05430169 1.39453125 29.06640625 C-0.0433016 19.3296724 -0.21875832 9.81981812 0 0 Z "
     transform="translate(225,697)"
     style="fill: #92AD5F;"
     id="path1097" />
  <path
     d="M0 0 C0.77472656 0.00451172 1.54945313 0.00902344 2.34765625 0.01367188 C4.23180524 0.02530242 6.11591365 0.04323094 8 0.0625 C7.67128906 0.92746094 7.34257812 1.79242187 7.00390625 2.68359375 C3.28622617 12.5120354 -0.29629061 22.3864704 -3.83959961 32.27905273 C-4.38886108 33.81154663 -4.38886108 33.81154663 -4.94921875 35.375 C-5.43394653 36.73044922 -5.43394653 36.73044922 -5.9284668 38.11328125 C-7.25818592 41.77311424 -8.63275713 45.41651901 -10 49.0625 C-27.16 48.7325 -44.32 48.4025 -62 48.0625 C-59.99583174 42.04999522 -58.05321184 36.73314459 -55.1875 31.1875 C-54.8363916 30.49914062 -54.4852832 29.81078125 -54.12353516 29.1015625 C-53.09005026 27.08445588 -52.04632691 25.0729681 -51 23.0625 C-50.45730469 22.00804687 -49.91460937 20.95359375 -49.35546875 19.8671875 C-47.95537963 17.21477593 -46.57344006 14.61648966 -45 12.0625 C-44.62633301 11.39532959 -44.25266602 10.72815918 -43.86767578 10.04077148 C-41.82242052 6.79618321 -40.24994233 4.53081812 -36.58251953 3.15673828 C-33.75605073 2.63683979 -30.99068324 2.33791221 -28.125 2.125 C-27.16980469 2.02638672 -26.21460938 1.92777344 -25.23046875 1.82617188 C-23.35211543 1.63421396 -21.47213167 1.45751426 -19.59082031 1.29711914 C-17.33481085 1.09281975 -15.10934714 0.81733389 -12.8671875 0.5 C-8.54548236 0.01107982 -4.3425146 -0.04891914 0 0 Z "
     transform="translate(307,540.9375)"
     style="fill: #92AD5F;"
     id="path1099" />
  <path
     d="M0 0 C4.91881174 -0.09495776 9.56819761 0.2547012 14.4375 0.9375 C21.54641504 1.90655338 28.60237571 2.37324287 35.76953125 2.65625 C39 3 39 3 42 5 C36.16219477 16.70245095 29.97095814 27.83343449 22.17529297 38.35253906 C20.85612187 40.1510627 20.85612187 40.1510627 19.34765625 42.8046875 C17.6846966 45.3542649 16.72627458 46.61818959 14 48 C6.66684775 48.8879391 -0.83164727 47.4723638 -8 46 C-7.45758883 37.99122448 -6.20753168 30.28856955 -4.5625 22.4375 C-4.34529297 21.37853516 -4.12808594 20.31957031 -3.90429688 19.22851562 C-3.47765514 17.14911763 -3.04885487 15.0701611 -2.61767578 12.99169922 C-1.72442286 8.66524812 -0.86010137 4.33314599 0 0 Z "
     transform="translate(328,790)"
     style="fill: #91AD5F;"
     id="path1101" />
  <path
     d="M0 0 C3.68048094 0.6062862 7.34074033 1.27553119 11 2 C11.92941406 2.17144531 12.85882813 2.34289062 13.81640625 2.51953125 C14.68136719 2.71933594 15.54632813 2.91914063 16.4375 3.125 C17.21996094 3.29257812 18.00242187 3.46015625 18.80859375 3.6328125 C24.70023661 7.30852552 26.10367656 16.09937886 27.625 22.4375 C27.83664795 23.30133301 28.0482959 24.16516602 28.26635742 25.05517578 C30.65744612 35.20870673 32.17795125 45.5494086 32 56 C26.20543291 55.35963005 20.92582205 53.8738165 15.375 52.125 C7.63268308 49.7378094 -0.0733053 47.6881073 -8 46 C-7.45758883 37.99122448 -6.20753168 30.28856955 -4.5625 22.4375 C-4.34529297 21.37853516 -4.12808594 20.31957031 -3.90429688 19.22851562 C-3.47765514 17.14911763 -3.04885487 15.0701611 -2.61767578 12.99169922 C-1.72442286 8.66524812 -0.86010137 4.33314599 0 0 Z "
     transform="translate(383,494)"
     style="fill: #91AD5F;"
     id="path1103" />
  <path
     d="M0 0 C9.13435402 0.4278386 17.97474541 2.25528368 26.921875 4.015625 C31.90551793 4.99462083 36.89738943 5.83693944 41.91796875 6.60546875 C44 7 44 7 46 8 C45.40496729 11.68220241 44.71994819 15.34026337 44 19 C43.84015625 19.92941406 43.6803125 20.85882812 43.515625 21.81640625 C42.142833 28.04034837 42.142833 28.04034837 39.3671875 30.37109375 C36.94587851 31.55412875 34.60122108 32.28642178 32 33 C30.83984375 33.33386719 29.6796875 33.66773438 28.484375 34.01171875 C21.23887357 35.99873007 13.90112267 37.47452831 6.5 38.75 C5.77111572 38.87769775 5.04223145 39.00539551 4.29125977 39.13696289 C-0.52854436 39.92124891 -5.11720314 40.1099729 -10 40 C-9.35963005 34.20543291 -7.8738165 28.92582205 -6.125 23.375 C-3.73893074 15.63631989 -1.65030373 7.93303897 0 0 Z "
     transform="translate(472,691)"
     style="fill: #91AD5F;"
     id="path1105" />
  <path
     d="M0 0 C3.75975184 2.18574239 7.27808839 4.59329053 10.8125 7.125 C15.78519449 10.62186645 20.88482324 13.77817711 26.1875 16.75 C26.81567627 17.1020752 27.44385254 17.45415039 28.09106445 17.81689453 C28.71456787 18.16091309 29.33807129 18.50493164 29.98046875 18.859375 C30.61065918 19.21717041 31.24084961 19.57496582 31.89013672 19.94360352 C34.04450157 21.08535582 34.04450157 21.08535582 36.66064453 21.88256836 C39.60896988 22.96548157 41.6559234 23.89633436 44 26 C45.5128579 30.6524949 45.4902602 35.19990566 45.5 40.0625 C45.56736609 42.59520581 45.64022645 45.12777181 45.71875 47.66015625 C45.74839844 48.89137207 45.77804688 50.12258789 45.80859375 51.39111328 C46.04342031 55.81867222 46.72545572 60.0661407 47.58007812 64.41186523 C47.99836125 66.98989975 48.07293606 69.39341821 48 72 C33.118196 65.18339136 19.91303947 49.738646 10 37 C9.21109375 35.9996875 8.4221875 34.999375 7.609375 33.96875 C-0.12898412 23.39113682 -0.41332097 12.74406321 0 0 Z "
     transform="translate(174,667)"
     style="fill: #91AD5F;"
     id="path1107" />
  <path
     d="M0 0 C6.30045713 0.14001016 12.5362654 1.2725586 18.75 2.25 C18.06699421 9.08709918 17.02407879 15.80060322 15.8125 22.5625 C15.45272266 24.59367878 15.0933438 26.62492817 14.734375 28.65625 C14.47817383 30.10257813 14.47817383 30.10257813 14.21679688 31.578125 C13.48076477 35.7910619 12.80457274 40.01278197 12.14453125 44.23828125 C11.75 46.25 11.75 46.25 10.75 48.25 C5.90324198 48.33699309 1.30112046 48.02787203 -3.5 47.375 C-9.90770685 46.52710219 -16.32088892 45.79162405 -22.75 45.125 C-24.01505371 44.99375732 -24.01505371 44.99375732 -25.30566406 44.85986328 C-27.28697925 44.65531121 -29.26847001 44.45246067 -31.25 44.25 C-10.27327966 0.79025228 -10.27327966 0.79025228 0 0 Z "
     transform="translate(357.25,489.75)"
     style="fill: #92AD5F;"
     id="path1109" />
  <path
     d="M0 0 C-1.63798547 7.66313804 -3.57849131 15.23235957 -5.5625 22.8125 C-6.18891345 25.21481471 -6.81522022 27.61715725 -7.44140625 30.01953125 C-7.71670166 31.07245361 -7.99199707 32.12537598 -8.27563477 33.21020508 C-8.86257074 35.47070977 -9.43878159 37.73300434 -10 40 C-18.00877552 39.45758883 -25.71143045 38.20753168 -33.5625 36.5625 C-34.62146484 36.34529297 -35.68042969 36.12808594 -36.77148438 35.90429688 C-38.85088237 35.47765514 -40.9298389 35.04885487 -43.00830078 34.61767578 C-47.33475188 33.72442286 -51.66685401 32.86010137 -56 32 C-53.98311218 14.82991556 -53.98311218 14.82991556 -50 10 C-44.78462378 7.30239161 -39.30613754 5.84479987 -33.625 4.4375 C-32.32248291 4.1132605 -32.32248291 4.1132605 -30.99365234 3.7824707 C-20.82230163 1.34753344 -10.47909645 -0.17843663 0 0 Z "
     transform="translate(234,597)"
     style="fill: #92AD5F;"
     id="path1111" />
  <path
     d="M0 0 C-0.32871094 0.48726563 -0.65742188 0.97453125 -0.99609375 1.4765625 C-2.67417971 3.97777464 -4.33872893 6.48758388 -6 9 C-6.68835938 10.04027344 -7.37671875 11.08054687 -8.0859375 12.15234375 C-12.25028984 18.50520008 -16.20262403 24.94702187 -19.9375 31.5625 C-20.31495361 32.22902588 -20.69240723 32.89555176 -21.08129883 33.58227539 C-22.97860442 36.98635388 -24.59280368 40.37034237 -26 44 C-26.71841064 44.0501123 -27.43682129 44.10022461 -28.17700195 44.15185547 C-42.81688715 45.18163286 -57.41827539 46.33047246 -72 48 C-65.18339136 33.118196 -49.738646 19.91303947 -37 10 C-35.9996875 9.21109375 -34.999375 8.4221875 -33.96875 7.609375 C-23.39113682 -0.12898412 -12.74406321 -0.41332097 0 0 Z "
     transform="translate(345,490)"
     style="fill: #91AD5F;"
     id="path1113" />
  <path
     d="M0 0 C11.92074007 3.43478951 22.37986037 8.15972269 29 19 C29.96486328 20.56427734 29.96486328 20.56427734 30.94921875 22.16015625 C37.61709531 33.27913147 43.04103005 44.93550456 47.4375 57.125 C47.6967627 57.83567627 47.95602539 58.54635254 48.22314453 59.27856445 C49.50389886 62.95930276 50.31149865 66.09487052 50 70 C48.52853516 69.25556641 48.52853516 69.25556641 47.02734375 68.49609375 C34.53435093 62.19810237 22.02947881 56.11719889 9 51 C8.93530518 50.35788574 8.87061035 49.71577148 8.80395508 49.05419922 C7.21894349 33.73196703 4.7743687 18.93421142 1 4 C0.66649799 2.66670885 0.33311192 1.33338867 0 0 Z "
     transform="translate(413,503)"
     style="fill: #91AD5F;"
     id="path1115" />
  <path
     d="M0 0 C9.13435402 0.4278386 17.97474541 2.25528368 26.921875 4.015625 C31.90551793 4.99462083 36.89738943 5.83693944 41.91796875 6.60546875 C44 7 44 7 46 8 C45.81824219 9.78277344 45.81824219 9.78277344 45.6328125 11.6015625 C44.33691337 24.39367746 43.14253486 37.19332309 42 50 C28.49702232 43.48251655 15.60851941 36.61972279 4 27 C2.92492187 26.28199219 1.84984375 25.56398438 0.7421875 24.82421875 C-2.4010928 21.5869087 -2.4010928 21.5869087 -2.40234375 17.96875 C-2.27950357 16.47617583 -2.12357285 14.98601624 -1.9375 13.5 C-1.87111328 12.75363281 -1.80472656 12.00726562 -1.73632812 11.23828125 C-1.37673477 7.4407066 -0.83531457 3.72565082 0 0 Z "
     transform="translate(176,636)"
     style="fill: #92AD5F;"
     id="path1117" />
  <path
     d="M0 0 C7.69863647 1.64069302 15.24819748 3.67422084 22.828125 5.7890625 C28.52433742 7.36427208 34.21944484 8.76807841 40 10 C39.45758883 18.00877552 38.20753168 25.71143045 36.5625 33.5625 C36.23668945 35.15094727 36.23668945 35.15094727 35.90429688 36.77148438 C35.47765514 38.85088237 35.04885487 40.9298389 34.61767578 43.00830078 C33.72442286 47.33475188 32.86010137 51.66685401 32 56 C27.98144935 55.42203586 23.9905402 54.74732806 20 54 C19.12214844 53.84015625 18.24429687 53.6803125 17.33984375 53.515625 C14.12117043 52.72036014 11.80517137 52.01069559 9.69921875 49.3671875 C8.50827867 46.94852155 7.74314362 44.59399189 7 42 C6.49726563 40.25976562 6.49726563 40.25976562 5.984375 38.484375 C4.00347602 31.23765532 2.52541424 23.90078934 1.25 16.5 C1.12230225 15.77111572 0.99460449 15.04223145 0.86303711 14.29125977 C0.07875109 9.47145564 -0.1099729 4.88279686 0 0 Z "
     transform="translate(281,778)"
     style="fill: #92AD5F;"
     id="path1119" />
  <path
     d="M0 0 C-0.70962891 1.40185547 -0.70962891 1.40185547 -1.43359375 2.83203125 C-5.3291294 10.5573467 -9.15020025 18.31582259 -12.875 26.125 C-13.4462561 27.31379761 -13.4462561 27.31379761 -14.02905273 28.52661133 C-15.97217203 32.6225516 -17.67970289 36.64996847 -19 41 C-19.62753174 41.06993164 -20.25506348 41.13986328 -20.90161133 41.21191406 C-37.57755318 43.10141872 -53.73851947 45.87969243 -70 50 C-66.56521049 38.07925993 -61.84027731 27.62013963 -51 21 C-49.95714844 20.35675781 -48.91429687 19.71351563 -47.83984375 19.05078125 C-36.72086853 12.38290469 -25.06449544 6.95896995 -12.875 2.5625 C-12.16432373 2.3032373 -11.45364746 2.04397461 -10.72143555 1.77685547 C-7.04069724 0.49610114 -3.90512948 -0.31149865 0 0 Z "
     transform="translate(257,549)"
     style="fill: #91AD5F;"
     id="path1121" />
  <path
     d="M0 0 C0.93457031 0.47308594 1.86914062 0.94617188 2.83203125 1.43359375 C10.5573467 5.3291294 18.31582259 9.15020025 26.125 12.875 C26.91753174 13.2558374 27.71006348 13.6366748 28.52661133 14.02905273 C32.6225516 15.97217203 36.64996847 17.67970289 41 19 C41.07516846 19.64324219 41.15033691 20.28648437 41.2277832 20.94921875 C43.18561887 37.54716644 45.20160781 53.93729708 50 70 C41.07639029 68.87132209 29.57013229 62.8106189 23.9375 55.8125 C22.9095177 54.239169 21.93378055 52.63100336 21 51 C20.36191406 49.95972656 19.72382813 48.91945313 19.06640625 47.84765625 C12.26730423 36.56428072 6.77328174 24.79131403 2.5625 12.3125 C2.3032373 11.54583008 2.04397461 10.77916016 1.77685547 9.98925781 C0.63302906 6.4658008 0 3.73863636 0 0 Z "
     transform="translate(233,755)"
     style="fill: #91AD5F;"
     id="path1123" />
  <path
     d="M0 0 C-1.00034806 4.39347006 -2.76375476 8.28728404 -4.625 12.375 C-4.94339844 13.1175 -5.26179688 13.86 -5.58984375 14.625 C-12.91789898 30.63920563 -35.01309715 38.91686841 -50.54492188 44.99609375 C-52.99840895 45.90787538 -55.46045272 46.77947553 -57.9375 47.625 C-58.68862061 47.88490723 -59.43974121 48.14481445 -60.21362305 48.41259766 C-63.91512373 49.61200458 -66.29183482 50.16432809 -70 49 C-69.60208252 48.25016846 -69.20416504 47.50033691 -68.79418945 46.7277832 C-67.28802086 43.88104799 -65.78855799 41.03090034 -64.29321289 38.1784668 C-63.65092546 36.95640983 -63.00615952 35.73565155 -62.35864258 34.51635742 C-57.94729003 26.20436835 -54.17172952 17.87288326 -51 9 C-49.87207031 8.90203125 -48.74414062 8.8040625 -47.58203125 8.703125 C-38.60162803 7.8703195 -29.74017786 6.7350248 -20.875 5.0625 C-20.02397705 4.90491211 -19.1729541 4.74732422 -18.29614258 4.58496094 C-13.3134868 3.61040132 -8.59588283 2.30117251 -3.81689453 0.58374023 C-2 0 -2 0 0 0 Z "
     transform="translate(509,729)"
     style="fill: #91AD5F;"
     id="path1125" />
  <path
     d="M0 0 C-6.51926006 14.23264202 -21.24253301 27.21068314 -33.42382812 36.75976562 C-34.93175591 37.94630112 -36.41200256 39.16776428 -37.890625 40.390625 C-48.22161979 48.23766476 -59.52275779 48.11190352 -72 48 C-69.81425761 44.24024816 -67.40670947 40.72191161 -64.875 37.1875 C-61.37813355 32.21480551 -58.22182289 27.11517676 -55.25 21.8125 C-54.8979248 21.18432373 -54.54584961 20.55614746 -54.18310547 19.90893555 C-53.83908691 19.28543213 -53.49506836 18.66192871 -53.140625 18.01953125 C-52.78299072 17.38934082 -52.42535645 16.75915039 -52.05688477 16.10986328 C-50.91502988 13.95518052 -50.91502988 13.95518052 -50.11303711 11.33935547 C-49.02915909 8.39841384 -48.09348268 6.34393 -46 4 C-41.39030822 2.48434082 -36.88492046 2.50972752 -32.0625 2.5 C-29.55323768 2.43235788 -27.04411169 2.35945121 -24.53515625 2.28125 C-23.29652832 2.25160156 -22.05790039 2.22195313 -20.78173828 2.19140625 C-15.73572477 1.93601086 -10.81097662 1.21986405 -5.82592773 0.41992188 C-3 0 -3 0 0 0 Z "
     transform="translate(423,790)"
     style="fill: #91AD5F;"
     id="path1127" />
  <path
     d="M0 0 C13.50297768 6.51748345 26.39148059 13.38027721 38 23 C39.08667969 23.66 40.17335938 24.32 41.29296875 25 C43.4608545 26.80935999 43.95484354 27.6189097 44.29174805 30.4621582 C44.14086609 33.45075189 43.80320465 36.35106693 43.375 39.3125 C43.25253906 40.33923828 43.13007812 41.36597656 43.00390625 42.42382812 C42.6978991 44.95427187 42.36253998 47.47714077 42 50 C35.16290082 49.31699421 28.44939678 48.27407879 21.6875 47.0625 C19.65632122 46.70272266 17.62507183 46.3433438 15.59375 45.984375 C14.14742188 45.72817383 14.14742188 45.72817383 12.671875 45.46679688 C8.4589381 44.73076477 4.23721803 44.05457274 0.01171875 43.39453125 C-2 43 -2 43 -4 42 C-4.08699309 37.15324198 -3.77787203 32.55112046 -3.125 27.75 C-2.27710219 21.34229315 -1.54162405 14.92911108 -0.875 8.5 C-0.78750488 7.65663086 -0.70000977 6.81326172 -0.60986328 5.94433594 C-0.40531121 3.96302075 -0.20246067 1.98152999 0 0 Z "
     transform="translate(478,642)"
     style="fill: #92AD5F;"
     id="path1129" />
  <path
     d="M0 0 C14.23264202 6.51926006 27.21068314 21.24253301 36.75976562 33.42382812 C37.94630112 34.93175591 39.16776428 36.41200256 40.390625 37.890625 C48.23766476 48.22161979 48.11190352 59.52275779 48 72 C44.24024816 69.81425761 40.72191161 67.40670947 37.1875 64.875 C32.21480551 61.37813355 27.11517676 58.22182289 21.8125 55.25 C21.18432373 54.8979248 20.55614746 54.54584961 19.90893555 54.18310547 C19.28543213 53.83908691 18.66192871 53.49506836 18.01953125 53.140625 C17.38934082 52.78323242 16.75915039 52.42583984 16.10986328 52.05761719 C13.95470077 50.91560612 13.95470077 50.91560612 11.33935547 50.10644531 C8.40943631 49.02113502 6.34373126 48.07822936 4 46 C2.4796444 41.45339044 2.51386472 37.01313409 2.5 32.25 C2.4119284 29.63661334 2.32079254 27.02332811 2.2265625 24.41015625 C2.1946582 23.14316895 2.16275391 21.87618164 2.12988281 20.57080078 C1.96011861 15.90356176 1.48597015 11.31488128 0.875 6.6875 C0.74254883 5.64094238 0.74254883 5.64094238 0.60742188 4.57324219 C0.41188843 3.04792235 0.20728528 1.52376729 0 0 Z "
     transform="translate(474,589)"
     style="fill: #91AD5F;"
     id="path1131" />
  <path
     d="M0 0 C2.87743359 2.79023864 5.58074591 5.6421688 8.1875 8.6875 C14.59871926 16.03426198 21.38062042 22.68570987 29.0625 28.6875 C29.65981934 29.15591309 30.25713867 29.62432617 30.87255859 30.10693359 C33.46281122 32.11603523 36.04541139 34.02976545 38.7890625 35.828125 C43.36489987 38.89855659 45.35593771 40.96859053 46.4765625 46.453125 C47.93904706 52.92648944 49.93638902 59.07397111 52.1875 65.3125 C52.57534668 66.39539307 52.96319336 67.47828613 53.36279297 68.59399414 C55.95444185 75.64191232 58.88531881 82.29005989 62.69995117 88.76098633 C63.51416363 90.14714746 64.26476636 91.57037903 65 93 C64.67 93.66 64.34 94.32 64 95 C33.27466863 71.85448606 11.10742203 39.77229868 0 3 C0 2.01 0 1.02 0 0 Z "
     transform="translate(180,709)"
     style="fill: #91AC5F;"
     id="path1133" />
  <path
     d="M0 0 C-0.57105469 0.42667969 -1.14210938 0.85335938 -1.73046875 1.29296875 C-11.93544604 9.16167143 -20.95006272 18.0946252 -28.875 28.25 C-29.33487305 28.83652344 -29.79474609 29.42304687 -30.26855469 30.02734375 C-32.21317692 32.54441504 -34.01492012 35.02441475 -35.67578125 37.7421875 C-38.57005454 42.30422034 -40.89693783 44.31251838 -46.22558594 45.67602539 C-48.30908603 46.1381041 -50.3972446 46.56950143 -52.48828125 46.99609375 C-64.9651223 49.59532175 -76.72390419 54.96843439 -87.74584961 61.24291992 C-89.46877423 62.21425141 -91.2313687 63.11462019 -93 64 C-93.66 63.67 -94.32 63.34 -95 63 C-73.33868832 34.24492544 -44.31934257 13.66479214 -10.625 1.4375 C-9.90497803 1.17348389 -9.18495605 0.90946777 -8.44311523 0.63745117 C-3.3685692 -1.1228564 -3.3685692 -1.1228564 0 0 Z "
     transform="translate(303,497)"
     style="fill: #91AC5F;"
     id="path1135" />
  <path
     d="M0 0 C5.97605425 3.61708547 10.92822759 8.22214432 16 13 C16.5372168 13.50321777 17.07443359 14.00643555 17.62792969 14.52490234 C38.33816333 34.0687792 53.42630437 57.972339 62.5625 84.9375 C62.95828247 86.10116089 62.95828247 86.10116089 63.36206055 87.28833008 C65.12774515 92.7445097 65.12774515 92.7445097 64 95 C63.57332031 94.42894531 63.14664063 93.85789062 62.70703125 93.26953125 C54.83832857 83.06455396 45.9053748 74.04993728 35.75 66.125 C34.87021484 65.43519043 34.87021484 65.43519043 33.97265625 64.73144531 C31.45558496 62.78682308 28.97558525 60.98507988 26.2578125 59.32421875 C21.69577966 56.42994546 19.68748162 54.10306217 18.32397461 48.77441406 C17.8618959 46.69091397 17.43049857 44.6027554 17.00390625 42.51171875 C14.23922627 29.2406734 8.29197698 16.99999042 1.72265625 5.24609375 C0 2 0 2 0 0 Z "
     transform="translate(451,524)"
     style="fill: #91AC5F;"
     id="path1137" />
  <path
     d="M0 0 C0.99 0.495 0.99 0.495 2 1 C0.60770997 2.73202093 -0.78900556 4.46048484 -2.1875 6.1875 C-2.96480469 7.15042969 -3.74210937 8.11335937 -4.54296875 9.10546875 C-6.91050603 11.89457069 -9.39044886 14.43818455 -12 17 C-12.92598614 17.96737099 -13.84903524 18.93755969 -14.76953125 19.91015625 C-33.78120887 39.74801881 -60.74626561 58.06785408 -88 64 C-88.99 63.67 -89.98 63.34 -91 63 C-90.154375 62.2265625 -89.30875 61.453125 -88.4375 60.65625 C-85.48277815 57.94768223 -82.54056061 55.22598975 -79.60644531 52.49511719 C-78.32091758 51.2986777 -77.0320962 50.10577746 -75.7421875 48.9140625 C-71.57821252 44.92431242 -67.9901595 40.59140807 -64.4375 36.0625 C-63.96094971 35.45704346 -63.48439941 34.85158691 -62.9934082 34.2277832 C-60.94677259 31.60177043 -58.99244377 28.9884888 -57.1640625 26.203125 C-54.23861666 21.83636194 -52.1924533 19.64782724 -47 18.4375 C-45.45892578 18.14552734 -45.45892578 18.14552734 -43.88671875 17.84765625 C-30.31125046 14.88697623 -17.07155341 9.63492738 -5.05200195 2.70654297 C-3.39488773 1.75587942 -1.70054557 0.87059377 0 0 Z "
     transform="translate(486,767)"
     style="fill: #91AC5F;"
     id="path1139" />
</svg>
