<?xml version="1.0" standalone="no"?><!DOCTYPE svg PUBLIC "-//W3C//DTD SVG 1.1//EN" "http://www.w3.org/Graphics/SVG/1.1/DTD/svg11.dtd"><svg class="icon" width="200px" height="200.00px" viewBox="0 0 1024 1024" version="1.1" xmlns="http://www.w3.org/2000/svg"><path d="M512 960C265.6 960 64 758.4 64 512S265.6 64 512 64s448 201.6 448 448-201.6 448-448 448z m0-832c-211.2 0-384 172.8-384 384s172.8 384 384 384 384-172.8 384-384-172.8-384-384-384z m-78.4 544c-4.8 0-11.2-1.6-16-4.8-9.6-6.4-16-16-16-27.2V384c0-11.2 6.4-22.4 16-27.2 9.6-6.4 22.4-6.4 32 0l222.4 128c9.6 6.4 16 16 16 27.2s-6.4 22.4-16 27.2l-222.4 128c-4.8 3.2-11.2 4.8-16 4.8z m32-232v145.6l126.4-72L465.6 440z" fill="#333333" /></svg>